<?xml version="1.0" encoding="UTF-8"?>
<svg id="Livello_1" data-name="Livello 1" xmlns="http://www.w3.org/2000/svg" viewBox="0 0 2309.49 227.7">
  <defs>
    <style>
      .cls-1 {
        fill: #fff;
      }
    </style>
  </defs>
  <path class="cls-1" d="M0,113.82C0,47.46,50.86,0,119.27,0c37.99,0,69.72,13.84,90.4,38.94l-32.61,30.24c-14.74-16.97-33.3-25.79-55.23-25.79-41.17,0-70.35,28.92-70.35,70.43s29.18,70.5,70.35,70.5c21.93,0,40.48-8.83,55.23-26.11l32.61,30.18c-20.68,25.48-52.42,39.32-90.72,39.32C50.86,227.7,0,180.18,0,113.82Z"/>
  <path class="cls-1" d="M268.53,220.19h-54.92L308.39,0h50.23l95.09,220.19c-99.59,18.47-123.77-60.6-152.13,0h-33.05ZM335.38,62.92l-52.42,123.27h16.99c12.62-74,48.23-28.36,86.65-4.51l-51.23-118.77Z"/>
  <path class="cls-1" d="M477.03,0h50.86v178.62h110.15v41.57h-161V0Z"/>
  <path class="cls-1" d="M619.06,113.82c0-66.36,50.86-113.82,119.27-113.82,37.99,0,69.72,13.84,90.4,38.94l-32.61,30.24c-14.74-16.97-33.3-25.79-55.23-25.79-41.17,0-70.35,28.92-70.35,70.43s29.18,70.5,70.35,70.5c21.93,0,40.48-8.83,55.23-26.11l32.61,30.18c-20.68,25.48-52.42,39.32-90.72,39.32-68.1,0-118.96-47.52-118.96-113.88Z"/>
  <path class="cls-1" d="M855.87,40.88V0h166.06v40.88h-166.06ZM855.87,128.35v-39.63h152.57v39.63h-152.57ZM906.41,179.31h119.58v40.88h-170.12v-40.88h50.54Z"/>
  <path class="cls-1" d="M1130.43,41.51h-70.29V0h191.43v41.51h-121.14ZM1130.43,82.96h50.86v137.24h-50.86V82.96Z"/>
  <path class="cls-1" d="M1352.81,41.51h-70.29V0h191.43v41.51h-121.14ZM1352.81,82.96h50.86v137.24h-50.86V82.96Z"/>
  <path class="cls-1" d="M1504.91,0h50.86v220.19h-50.86V0Z"/>
  <path class="cls-1" d="M1794.17,0v220.19h-41.73l-109.58-133.73v133.73h-50.23V0h42.11l109.21,133.67V0h50.23Z"/>
  <path class="cls-1" d="M2032.4,0v220.19h-50.86v-90.28h-99.84v90.28h-50.86V0h50.86v86.77h99.84V0h50.86Z"/>
  <path class="cls-1" d="M2069.08,113.82c0-65.42,50.86-113.82,120.2-113.82s120.21,48.08,120.21,113.82-51.17,113.88-120.21,113.88-120.2-48.46-120.2-113.88ZM2258.01,113.82c0-41.82-29.49-70.43-68.72-70.43s-68.72,28.61-68.72,70.43,29.49,70.5,68.72,70.5,68.72-28.67,68.72-70.5Z"/>
</svg>