<?xml version="1.0" encoding="UTF-8"?>
<svg id="Livello_1" data-name="Livello 1" xmlns="http://www.w3.org/2000/svg" xmlns:xlink="http://www.w3.org/1999/xlink" viewBox="0 0 407.98 554.28">
  <defs>
    <style>
      .cls-1 {
        fill: url(#oro);
      }

      .cls-1, .cls-2, .cls-3, .cls-4, .cls-5, .cls-6, .cls-7, .cls-8 {
        fill-rule: evenodd;
      }

      .cls-9 {
        fill: url(#linear-gradient-2);
      }

      .cls-10 {
        fill: #fff;
      }

      .cls-11 {
        fill: #f6f6f6;
        stroke: #f6f6f6;
        stroke-miterlimit: 10;
        stroke-width: 3px;
      }

      .cls-12 {
        fill: url(#linear-gradient-4);
      }

      .cls-2 {
        fill: #5a6d70;
      }

      .cls-13 {
        fill: url(#linear-gradient-3);
      }

      .cls-14 {
        clip-path: url(#clippath-1);
      }

      .cls-15 {
        fill: url(#linear-gradient-5);
      }

      .cls-16 {
        fill: #d9a528;
      }

      .cls-3 {
        fill: #e7373e;
      }

      .cls-17 {
        fill: url(#linear-gradient-8);
      }

      .cls-18 {
        fill: url(#linear-gradient-7);
      }

      .cls-19 {
        fill: url(#linear-gradient-9);
      }

      .cls-4 {
        fill: #022d44;
      }

      .cls-20, .cls-6 {
        fill: #e4e4e3;
      }

      .cls-21 {
        fill: url(#linear-gradient-6);
      }

      .cls-5 {
        fill: #395475;
      }

      .cls-22 {
        fill: #002536;
      }

      .cls-23 {
        clip-path: url(#clippath-2);
      }

      .cls-7 {
        fill: #00a273;
      }

      .cls-8 {
        fill: #006081;
      }

      .cls-24 {
        fill: url(#linear-gradient);
      }

      .cls-25 {
        clip-path: url(#clippath);
      }
    </style>
    <linearGradient id="oro" x1="6.5" y1="317.66" x2="401.48" y2="317.66" gradientUnits="userSpaceOnUse">
      <stop offset="0" stop-color="#b57e11"/>
      <stop offset=".22" stop-color="#e6c35c"/>
      <stop offset=".33" stop-color="#f9df7c"/>
      <stop offset=".52" stop-color="#fff3a7"/>
      <stop offset=".73" stop-color="#f9df7c"/>
      <stop offset="1" stop-color="#b57e11"/>
    </linearGradient>
    <linearGradient id="linear-gradient" x1="245.36" y1="268.61" x2="283.2" y2="358.35" gradientUnits="userSpaceOnUse">
      <stop offset="0" stop-color="#efe69f"/>
      <stop offset=".51" stop-color="#c08d36"/>
      <stop offset="1" stop-color="#a25717"/>
    </linearGradient>
    <linearGradient id="linear-gradient-2" x1="270.99" y1="292.43" x2="308.72" y2="336.28" xlink:href="#linear-gradient"/>
    <linearGradient id="linear-gradient-3" x1="252.05" y1="308.72" x2="289.78" y2="352.57" xlink:href="#linear-gradient"/>
    <linearGradient id="linear-gradient-4" x1="274.39" y1="268.66" x2="288.54" y2="299.07" xlink:href="#linear-gradient"/>
    <linearGradient id="linear-gradient-5" x1="279.26" y1="270.45" x2="282.57" y2="304.57" xlink:href="#linear-gradient"/>
    <linearGradient id="linear-gradient-6" x1="273.05" y1="279.68" x2="297.54" y2="304.77" xlink:href="#linear-gradient"/>
    <linearGradient id="linear-gradient-7" x1="288.44" y1="303.71" x2="264.06" y2="335.17" xlink:href="#linear-gradient"/>
    <linearGradient id="linear-gradient-8" x1="276.92" y1="292.78" x2="265.78" y2="337.79" xlink:href="#linear-gradient"/>
    <linearGradient id="linear-gradient-9" x1="259.53" y1="289.74" x2="266.01" y2="308.25" xlink:href="#linear-gradient"/>
    <clipPath id="clippath">
      <path class="cls-20" d="M132.78,245.66c129.69-94.66,157.79-69.21,163.39-59.03.59.9,1.02,1.96,1.28,3.16,4.57,20.48-35.8,81.56-35.79,81.56,51.86-15.51,93.97-105.85,54.09-123.12-59.7-25.85-133.47,29.6-182.98,97.43Z"/>
    </clipPath>
    <clipPath id="clippath-1">
      <path class="cls-20" d="M185.29,403.73s-125.49,30.76-79.75-115.05c-17.47,32.31-28.09,64.23-28.09,88.98,0,121.38,193.25,83,205.88-39.23.76-7.34-44.32,55.1-98.04,65.29Z"/>
    </clipPath>
    <clipPath id="clippath-2">
      <path class="cls-10" d="M105.54,288.68c-45.74,145.81,79.75,115.05,79.75,115.05-4.75.9-9.57,1.39-14.42,1.39-69.54,0,60.22-221.92,117.66-221.92,3.73,0,6.2,1.25,7.64,3.44-5.6-10.18-33.7-35.63-163.39,59.03-10.23,14.01-19.42,28.55-27.24,43.01Z"/>
    </clipPath>
  </defs>
  <path class="cls-11" d="M405.95,236.59v-.08s0-.03,0-.03c0-.12,0-.22-.02-.31-.16-3.1-.37-6.29-.62-9.77-.3-3.78-.63-7.45-.98-10.93-.2-2.02-.44-4.18-.72-6.58-.27-2.29-.57-4.64-.88-6.98-.19-1.42-.39-2.85-.59-4.27-.39-2.75-.84-5.65-1.33-8.63-.69-4.26-1.46-8.63-2.3-12.98l-.12-.61c-.24-1.24-.49-2.49-.74-3.73-.54-2.74-1.15-5.6-1.84-8.71-.65-2.99-1.33-5.94-2.01-8.74-.77-3.21-1.58-6.44-2.39-9.58-.73-2.86-1.53-5.84-2.44-9.1-1.48-5.32-3.12-10.85-4.87-16.46l-3.34-3.59c-3.84-2.41-8.59-4.75-14.14-6.98-7.24-2.91-16.02-5.7-26.1-8.3l-.06-.02h-.06s-.07-.03-.07-.03c-.1-.03-.19-.05-.29-.07h-.04c-16.65-4.27-37.05-8.06-58.96-10.97l-.16-.02-.24-.03-.49-.07c-1.19-.16-2.38-.32-3.57-.46-.65-.09-1.32-.18-1.97-.25-.97-.12-1.94-.24-2.9-.36l-.36-.04-.75-.09-5.6-.67h0s-4.49-.46-4.49-.46c-3.48-.36-6.6-.66-9.55-.93-1.97-.18-4.07-.36-6.79-.58l-.41-.03h-.1c-.58-.06-1.16-.1-1.73-.14l-.61-.05c-1.63-.12-3.23-.25-4.81-.35-1.33-.09-2.65-.18-3.95-.26l-.8-.05c-3.38-.2-6.86-.37-10.4-.53l-2.44-.09c-4.09-.13-7.87-.2-11.28-.2h0c-1.26,0-2.48,0-3.65.03-1.17-.02-2.39-.03-3.66-.03-3.4,0-7.19.07-11.24.2h-.36s-2.08.09-2.08.09c-3.66.15-7.68.36-11.95.63-.51.03-1.07.07-1.63.11h-.09c-2.71.19-5.64.4-8.92.66-2.46.19-4.91.41-7.18.62-.34.03-.64.06-.95.09-.31.03-.62.05-.93.08-1.23.12-2.48.24-3.73.36-.72.07-1.4.14-2.09.21-.57.06-1.15.11-1.73.17l-4.49.46h0s-5.6.67-5.6.67l-.7.08-.29.04c-1.01.12-2.02.24-3.05.37-2.26.28-4.28.54-6.17.8-1.7.22-3.44.46-5.17.7-1.09.15-2.18.31-3.27.48-1.04.15-2.11.31-3.18.47l-1.59.24-1.57.24c-1.96.3-4.04.63-6.36,1.02-1.04.17-2.1.35-3.16.53-.6.1-1.22.21-1.83.31l-.09.02c-1.86.33-3.75.67-5.62,1.02-.79.14-1.57.29-2.36.44-.87.16-1.73.33-2.59.5-4.07.79-8.14,1.65-12.06,2.53-.49.11-.99.22-1.47.33-1.03.23-2.07.47-3.1.72-.44.11-.84.2-1.23.3-.5.12-1,.24-1.49.36-3.69.91-6.91,1.76-9.82,2.58l-.94.27c-.56.16-1.12.32-1.68.49-6.9,2.01-13.13,4.15-18.48,6.37-.54.22-1.06.44-1.57.67-.18.07-.35.15-.53.23l-.09.04c-.45.19-.88.39-1.31.58-.39.17-.79.36-1.18.54l-.4.18-.06.03-.06.03-.46.22c-.47.23-.94.46-1.4.7-2.16,1.08-4.19,2.22-6.02,3.38-.35.21-.71.44-1.12.73l-1.49,1.01-.51,1.72-.13.44c-1.84,5.93-3.59,11.88-5.2,17.71l-.03.09-.32.65v.49c-.46,1.7-.93,3.44-1.39,5.19h0s-.35,1.34-.35,1.34c-.57,2.19-1.06,4.14-1.5,5.97l-.03.12-.05.19c-.48,1.94-.96,3.98-1.49,6.27-.16.65-.31,1.27-.44,1.9-.48,2.11-1.04,4.6-1.57,7.11-.12.56-.24,1.12-.36,1.69-.78,3.69-1.54,7.54-2.25,11.45-.37,1.94-.7,3.8-1,5.65-.41,2.39-.82,4.87-1.2,7.35-.08.43-.14.89-.2,1.34-.6,3.89-1.15,7.82-1.63,11.68-2.16,17.23-3.25,34.37-3.26,50.94,0,28,3.08,55.12,9.19,80.61.45,1.84.91,3.68,1.37,5.48.23.91.48,1.82.72,2.74.46,1.71.95,3.49,1.52,5.45,2.06,7.16,4.43,14.35,7.04,21.4.79,2.1,1.4,3.71,2,5.24.7,1.79,1.41,3.55,2.11,5.22.7,1.71,1.45,3.45,2.2,5.16.76,1.76,1.58,3.56,2.29,5.11,1.19,2.58,2.41,5.14,3.64,7.61.42.84.84,1.68,1.27,2.51.8,1.56,1.64,3.18,2.58,4.95,1.05,1.96,1.91,3.52,2.71,4.96.85,1.52,1.77,3.12,2.8,4.88.88,1.51,1.83,3.1,2.9,4.85.48.8.98,1.6,1.5,2.42,1.35,2.16,2.77,4.36,4.2,6.51,2.12,3.19,4.37,6.43,6.68,9.62,2.26,3.12,4.65,6.28,7.11,9.41,4.4,5.59,9.12,11.15,14.04,16.52,2.03,2.21,4.05,4.35,6.02,6.38.84.86,1.95,2,3.12,3.16,25.27,25.31,56.02,47.06,91.5,64.75l-.06.03,9.38,4.5c3.63,1.74,7.55,3.45,11.34,5.1l.89.39.16.07.06.02h0c.13.06.24.11.35.16l1.96.78,1.93-.86c.11-.05.22-.1.33-.14.15-.06.3-.13.45-.19.27-.12.54-.24.81-.36.2-.09.4-.18.61-.27,1.48-.65,3.01-1.32,4.53-2l.29-.13.37-.17c2.32-1.04,4.23-1.92,5.82-2.68l.32-.15c1.66-.78,3.31-1.57,4.95-2.37l3.61-1.73-.05-.03c56.71-28.27,100.78-66.58,131.09-113.98,1.49-2.32,2.99-4.74,4.46-7.19,2.87-4.8,5.65-9.76,8.24-14.74,1.27-2.44,2.55-4.97,3.79-7.53,1.27-2.63,2.46-5.19,3.56-7.63.77-1.72,1.53-3.45,2.25-5.14,1.19-2.78,2.23-5.33,3.19-7.8.7-1.77,1.37-3.55,2-5.22.59-1.58,1.16-3.18,1.72-4.77l.19-.52c.59-1.68,1.2-3.48,1.81-5.34.23-.69.46-1.4.69-2.12l.33-1.04c.63-1.98,1.27-4.09,1.97-6.48.32-1.08.62-2.17.93-3.25l.16-.56.17-.59c.65-2.34,1.27-4.68,1.84-6.97l.34-1.37c3.63-14.75,6.28-30.11,7.86-45.66.36-3.53.67-7.04.9-10.42v-.17s.01-.02.01-.02c.67-9.48.98-19.16.92-28.78-.04-5.83-.21-11.78-.52-17.69Z"/>
  <g>
    <g>
      <g>
        <g>
          <path class="cls-1" d="M400.96,236.67c-.01-.12-.01-.25-.02-.37-.17-3.23-.38-6.46-.62-9.71-.28-3.58-.6-7.18-.97-10.79-.22-2.17-.46-4.35-.71-6.52-.27-2.29-.56-4.58-.87-6.88-.19-1.41-.39-2.83-.59-4.25-.4-2.83-.84-5.67-1.31-8.51-.69-4.27-1.45-8.55-2.28-12.85-.28-1.43-.56-2.87-.85-4.3-.57-2.87-1.18-5.74-1.82-8.62-.63-2.88-1.29-5.76-1.99-8.65-.76-3.16-1.55-6.33-2.37-9.5-.77-3-1.58-6-2.42-9.01-1.52-5.45-3.14-10.91-4.85-16.39h-.01c-8.91-5.94-23.17-11.1-40.01-15.44-.13-.03-.27-.07-.4-.1-17.87-4.58-38.59-8.25-58.9-10.93-1.36-.18-2.71-.36-4.06-.53-.63-.09-1.27-.17-1.9-.24-1.09-.14-2.18-.27-3.26-.4-.25-.03-.5-.06-.75-.09-3.37-.4-6.7-.77-10-1.12-3.21-.33-6.38-.64-9.49-.92-2.28-.21-4.54-.4-6.75-.58l-.39-.03c-.6-.05-1.19-.1-1.78-.14-1.84-.14-3.65-.28-5.42-.4-1.6-.11-3.18-.21-4.73-.31-3.58-.21-7.02-.38-10.29-.52-.82-.03-1.63-.06-2.42-.09-5.48-.18-10.44-.24-14.74-.17-4.31-.07-9.27-.01-14.74.17-.8.03-1.6.06-2.42.09-3.74.15-7.69.36-11.82.62-.56.03-1.12.07-1.69.11-2.88.19-5.85.41-8.88.65-2.34.18-4.71.39-7.12.61-.61.06-1.23.11-1.85.17-1.23.12-2.48.24-3.73.36-1.25.13-2.51.25-3.78.38-3.29.35-6.63.72-10,1.12-.33.04-.66.08-.99.12-1,.12-2,.24-3.01.37-2.04.25-4.08.51-6.13.79-1.72.23-3.44.46-5.16.7-1.07.15-2.15.31-3.23.47-1.05.15-2.11.31-3.16.47-1.05.16-2.11.32-3.16.48-2.1.32-4.2.66-6.29,1.01-1.05.17-2.09.35-3.13.53-.65.11-1.29.22-1.93.33-1.86.33-3.71.67-5.56,1.01-.78.14-1.56.29-2.34.44-.85.16-1.69.32-2.53.49-4.06.79-8.06,1.63-11.95,2.51-.49.11-.98.22-1.46.33-1.03.23-2.05.47-3.06.71-.89.22-1.79.43-2.67.65-3.32.82-6.56,1.66-9.68,2.54-.86.25-1.71.49-2.55.74-6.6,1.92-12.66,3.99-17.99,6.2-.53.22-1.05.44-1.55.66-.18.07-.35.15-.53.23-.44.19-.86.38-1.28.57-.52.23-1.03.47-1.53.7-.61.3-1.21.59-1.8.89-2.04,1.02-3.93,2.08-5.64,3.17-.33.2-.65.41-.96.62-1.94,6.21-3.76,12.41-5.45,18.58-.01.02-.02.04-.02.06-.65,2.37-1.28,4.74-1.89,7.1h-.01c-.54,2.09-1.07,4.17-1.57,6.25-.51,2.08-1,4.15-1.48,6.22-.15.6-.29,1.2-.42,1.81-.54,2.36-1.07,4.72-1.56,7.08-.12.55-.24,1.1-.35,1.65-.8,3.79-1.54,7.57-2.23,11.34-.35,1.86-.68,3.71-.99,5.57-.42,2.45-.82,4.9-1.2,7.34-.07.4-.13.81-.18,1.22-.6,3.88-1.14,7.75-1.62,11.61-5.69,45.45-3.9,89.15,5.83,129.77.44,1.81.89,3.61,1.35,5.4.23.9.47,1.8.71,2.7.48,1.79.98,3.58,1.49,5.36,2.05,7.12,4.36,14.13,6.92,21.04.65,1.73,1.3,3.44,1.97,5.15.67,1.71,1.36,3.42,2.07,5.12.7,1.7,1.42,3.39,2.16,5.07.73,1.69,1.49,3.36,2.26,5.04,1.15,2.5,2.34,4.99,3.57,7.46.41.82.82,1.64,1.24,2.46.84,1.64,1.69,3.27,2.55,4.9.87,1.62,1.75,3.24,2.65,4.85.9,1.61,1.82,3.21,2.75,4.8.93,1.6,1.88,3.18,2.85,4.76.48.79.96,1.57,1.46,2.36,1.35,2.16,2.73,4.3,4.14,6.42,2.12,3.19,4.31,6.34,6.57,9.46,2.26,3.12,4.59,6.2,6.99,9.25,4.36,5.54,8.96,10.95,13.8,16.24,1.94,2.11,3.91,4.2,5.92,6.27,1.01,1.04,2.02,2.07,3.05,3.09,29.3,29.34,66.39,54.32,111.67,73.8.1.04.2.09.3.13.27-.12.54-.23.81-.35,68.24-29.46,117.83-71.44,150.14-121.97,1.5-2.34,2.96-4.7,4.38-7.07,2.85-4.76,5.55-9.59,8.1-14.48,1.28-2.45,2.52-4.92,3.72-7.4,1.2-2.49,2.37-4.99,3.5-7.5.75-1.67,1.49-3.36,2.21-5.05,1.08-2.53,2.13-5.08,3.13-7.65.68-1.72,1.33-3.44,1.98-5.17.64-1.72,1.26-3.45,1.86-5.19h.01c.61-1.74,1.2-3.49,1.77-5.24.35-1.05.68-2.1,1.02-3.15.67-2.1,1.31-4.22,1.93-6.34.31-1.06.61-2.13.91-3.2.11-.39.22-.77.33-1.16.63-2.26,1.23-4.53,1.8-6.82.11-.45.22-.9.33-1.35,3.6-14.61,6.18-29.62,7.74-44.98.35-3.4.65-6.82.89-10.26v-.02c.67-9.41.98-18.94.92-28.57-.04-5.78-.21-11.6-.51-17.46ZM204.5,546.57c-4.12-1.8-8.17-3.65-12.14-5.55,4.12-1.97,8.17-3.98,12.14-6.02,3.97,2.05,8.01,4.05,12.13,6.02-3.97,1.9-8.02,3.75-12.13,5.55Z"/>
          <path class="cls-4" d="M400.96,236.67c-.01-.12-.01-.25-.02-.37-.17-3.23-.38-6.46-.62-9.71-.28-3.58-.6-7.18-.97-10.79-.22-2.17-.46-4.35-.71-6.52-.27-2.29-.56-4.58-.87-6.88-.19-1.41-.39-2.83-.59-4.25-.4-2.83-.84-5.67-1.31-8.51-.69-4.27-1.45-8.55-2.28-12.85-.28-1.43-.56-2.87-.85-4.3-.57-2.87-1.18-5.74-1.82-8.62-.63-2.88-1.29-5.76-1.99-8.65-.76-3.16-1.55-6.33-2.37-9.5-.77-3-1.58-6-2.42-9.01-1.52-5.45-3.14-10.91-4.85-16.39h-.01c-8.91-5.94-23.17-11.1-40.01-15.44-.13-.03-.27-.07-.4-.1-17.87-4.58-38.59-8.25-58.9-10.93-1.36-.18-2.71-.36-4.06-.53-.63-.09-1.27-.17-1.9-.24-1.09-.14-2.18-.27-3.26-.4-.25-.03-.5-.06-.75-.09-3.37-.4-6.7-.77-10-1.12-3.21-.33-6.38-.64-9.49-.92-2.28-.21-4.54-.4-6.75-.58l-.39-.03c-.6-.05-1.19-.1-1.78-.14-1.84-.14-3.65-.28-5.42-.4-1.6-.11-3.18-.21-4.73-.31-3.58-.21-7.02-.38-10.29-.52-.82-.03-1.63-.06-2.42-.09-5.48-.18-10.44-.24-14.74-.17-4.31-.07-9.27-.01-14.74.17-.8.03-1.6.06-2.42.09-3.74.15-7.69.36-11.82.62-.56.03-1.12.07-1.69.11-2.88.19-5.85.41-8.88.65-2.34.18-4.71.39-7.12.61-.61.06-1.23.11-1.85.17-1.23.12-2.48.24-3.73.36-1.25.13-2.51.25-3.78.38-3.29.35-6.63.72-10,1.12-.33.04-.66.08-.99.12-1,.12-2,.24-3.01.37-2.04.25-4.08.51-6.13.79-1.72.23-3.44.46-5.16.7-1.07.15-2.15.31-3.23.47-1.05.15-2.11.31-3.16.47-1.05.16-2.11.32-3.16.48-2.1.32-4.2.66-6.29,1.01-1.05.17-2.09.35-3.13.53-.65.11-1.29.22-1.93.33-1.86.33-3.71.67-5.56,1.01-.78.14-1.56.29-2.34.44-.85.16-1.69.32-2.53.49-4.06.79-8.06,1.63-11.95,2.51-.49.11-.98.22-1.46.33-1.03.23-2.05.47-3.06.71-.89.22-1.79.43-2.67.65-3.32.82-6.56,1.66-9.68,2.54-.86.25-1.71.49-2.55.74-6.6,1.92-12.66,3.99-17.99,6.2-.53.22-1.05.44-1.55.66-.18.07-.35.15-.53.23-.44.19-.86.38-1.28.57-.52.23-1.03.47-1.53.7-.61.3-1.21.59-1.8.89-2.04,1.02-3.93,2.08-5.64,3.17-.33.2-.65.41-.96.62-1.94,6.21-3.76,12.41-5.45,18.58-.01.02-.02.04-.02.06-.65,2.37-1.28,4.74-1.89,7.1-.54,2.09-1.06,4.17-1.58,6.25-.51,2.08-1,4.15-1.48,6.22-.15.6-.29,1.2-.42,1.81-.54,2.36-1.07,4.72-1.56,7.08-.12.55-.24,1.1-.35,1.65-.8,3.79-1.54,7.57-2.23,11.34-.35,1.86-.68,3.71-.99,5.57-.42,2.45-.82,4.9-1.2,7.34-.07.4-.13.81-.18,1.22-.6,3.88-1.14,7.75-1.62,11.61-5.69,45.45-3.9,89.15,5.83,129.77.44,1.81.89,3.61,1.35,5.4.23.9.47,1.8.71,2.7.48,1.79.98,3.58,1.49,5.36,2.05,7.12,4.36,14.13,6.92,21.04.65,1.73,1.3,3.44,1.97,5.15.67,1.71,1.36,3.42,2.07,5.12.7,1.7,1.42,3.39,2.16,5.07.73,1.69,1.49,3.36,2.26,5.04,1.16,2.5,2.35,4.99,3.57,7.46.41.82.82,1.64,1.24,2.46.84,1.64,1.69,3.27,2.55,4.9.87,1.62,1.75,3.24,2.65,4.85.9,1.61,1.82,3.21,2.75,4.8.93,1.6,1.88,3.18,2.85,4.76.48.79.96,1.57,1.46,2.36,1.35,2.16,2.73,4.3,4.14,6.42,2.12,3.19,4.31,6.34,6.57,9.46,2.26,3.12,4.59,6.2,6.99,9.25,4.36,5.54,8.96,10.95,13.8,16.24,1.95,2.11,3.92,4.2,5.92,6.27,1.01,1.04,2.02,2.07,3.05,3.09,29.3,29.34,66.39,54.32,111.67,73.8.1.04.2.09.3.13.27-.12.54-.23.81-.35,68.24-29.46,117.83-71.44,150.14-121.97,1.5-2.34,2.96-4.7,4.38-7.07,2.85-4.76,5.55-9.59,8.1-14.48,1.28-2.45,2.52-4.92,3.72-7.4,1.2-2.49,2.37-4.99,3.5-7.5.75-1.67,1.49-3.36,2.21-5.05,1.08-2.53,2.13-5.08,3.13-7.65.68-1.72,1.33-3.44,1.98-5.17.64-1.72,1.26-3.45,1.86-5.19h.01c.61-1.74,1.2-3.49,1.77-5.24.35-1.05.68-2.1,1.02-3.15.67-2.1,1.31-4.22,1.93-6.34.31-1.06.61-2.13.91-3.2.11-.39.22-.77.33-1.16.63-2.26,1.23-4.53,1.8-6.82.11-.45.22-.9.33-1.35,3.6-14.61,6.18-29.62,7.74-44.98.35-3.4.65-6.82.89-10.26v-.02c.67-9.41.98-18.94.92-28.57-.04-5.78-.21-11.6-.51-17.46ZM204.5,546.57c-4.12-1.8-8.17-3.65-12.14-5.55,4.12-1.97,8.17-3.98,12.14-6.02,3.97,2.05,8.01,4.05,12.13,6.02-3.97,1.9-8.02,3.75-12.13,5.55Z"/>
          <path class="cls-5" d="M401.47,254.13c.06,9.63-.25,19.16-.92,28.57v.02c-.24,3.44-.54,6.86-.89,10.26-1.56,15.36-4.14,30.37-7.74,44.98-.11.45-.22.9-.33,1.35-.57,2.29-1.17,4.56-1.8,6.82-.11.39-.22.77-.33,1.16-.3,1.07-.6,2.14-.91,3.2-.62,2.12-1.26,4.24-1.93,6.34-.34,1.05-.67,2.1-1.02,3.15-.57,1.75-1.16,3.5-1.77,5.23h-.01c-.6,1.75-1.22,3.48-1.86,5.2-.65,1.73-1.3,3.45-1.98,5.17-1,2.57-2.05,5.12-3.13,7.65-.72,1.69-1.46,3.38-2.21,5.05-1.13,2.51-2.3,5.01-3.5,7.5-1.2,2.48-2.44,4.95-3.72,7.4-2.55,4.89-5.25,9.72-8.1,14.48-1.42,2.37-2.88,4.73-4.38,7.07-32.31,50.53-81.9,92.51-150.14,121.97-.1-.03-.2-.08-.3-.13,4.11-1.8,8.16-3.65,12.13-5.55-4.12-1.97-8.16-3.97-12.13-6.02,159.57-82.19,202.64-228.09,148.91-399.73l33.15,10.45c.82,3.17,1.61,6.34,2.37,9.5.7,2.89,1.36,5.77,1.99,8.65.64,2.88,1.25,5.75,1.82,8.62.29,1.43.57,2.87.85,4.3.83,4.3,1.59,8.58,2.28,12.85.47,2.84.91,5.68,1.31,8.51.2,1.42.4,2.84.59,4.25.31,2.3.6,4.59.87,6.88.25,2.17.49,4.35.71,6.52.37,3.61.69,7.21.97,10.79.24,3.25.45,6.48.62,9.71.01.12.01.25.02.37.3,5.86.47,11.68.51,17.46Z"/>
          <path class="cls-5" d="M192.36,541.02c3.97,1.9,8.02,3.75,12.14,5.55-.27.12-.54.24-.81.35-45.28-19.48-82.37-44.46-111.67-73.8-1.03-1.02-2.04-2.05-3.05-3.09-2.01-2.07-3.98-4.16-5.92-6.27-4.84-5.29-9.44-10.7-13.8-16.24-2.4-3.05-4.73-6.13-6.99-9.25-2.26-3.12-4.45-6.27-6.57-9.46-1.41-2.12-2.79-4.26-4.14-6.42-.5-.79-.98-1.57-1.46-2.36-.97-1.58-1.92-3.16-2.85-4.76-.93-1.59-1.85-3.19-2.75-4.8-.9-1.61-1.78-3.23-2.65-4.85-.86-1.63-1.71-3.26-2.55-4.9-.42-.82-.83-1.64-1.24-2.46-1.23-2.47-2.42-4.96-3.57-7.46-.77-1.68-1.53-3.35-2.26-5.04-.74-1.68-1.46-3.37-2.16-5.07-.71-1.7-1.4-3.41-2.07-5.12-.67-1.71-1.32-3.42-1.97-5.15-2.56-6.91-4.87-13.92-6.92-21.04-.51-1.78-1.01-3.57-1.49-5.36-.24-.9-.48-1.8-.71-2.7-.46-1.79-.91-3.59-1.35-5.4-9.73-40.62-11.52-84.32-5.83-129.77.48-3.86,1.02-7.73,1.62-11.61.05-.41.11-.82.18-1.22.38-2.44.78-4.89,1.2-7.34.31-1.86.64-3.71.99-5.57.69-3.77,1.43-7.55,2.23-11.34.11-.55.23-1.1.35-1.65.49-2.36,1.02-4.72,1.56-7.08.13-.61.27-1.21.42-1.81.48-2.07.97-4.14,1.48-6.22.5-2.08,1.03-4.16,1.57-6.24h.01s34.25-10.8,34.25-10.8C1.85,306.92,44.93,452.81,204.5,535c-3.97,2.04-8.02,4.05-12.14,6.02Z"/>
          <g>
            <path class="cls-8" d="M217.08,541.17c-3.97,1.9-8.98,4.08-13.09,5.88-4.12-1.8-8.54-3.71-12.51-5.61,4.12-1.97,9.05-4.4,13.02-6.44,3.97,2.05,8.46,4.2,12.58,6.17Z"/>
            <g>
              <path class="cls-7" d="M137.96,92.58v16.8c-42.51,5.04-94.77,16.25-114.74,29.57,0-.02.01-.04.02-.06l5.45-18.58c.31-.21.63-.42.96-.62,1.71-1.09,3.6-2.15,5.64-3.17.59-.3,1.19-.59,1.8-.89.5-.23,1.01-.47,1.53-.7.42-.19.84-.38,1.28-.57.18-.08.35-.16.53-.23.5-.22,1.02-.44,1.55-.66,5.33-2.21,11.39-4.28,17.99-6.2.84-.25,1.69-.49,2.55-.74,3.12-.88,6.36-1.72,9.68-2.54.88-.22,1.78-.43,2.67-.65,1.01-.24,2.03-.48,3.06-.71.48-.11.97-.22,1.46-.33,3.89-.88,7.89-1.72,11.95-2.51.84-.17,1.68-.33,2.53-.49.78-.15,1.56-.3,2.34-.44,1.84-.35,3.7-.68,5.56-1.01.64-.11,1.28-.22,1.93-.33,1.04-.18,2.08-.36,3.13-.53,2.09-.35,4.19-.69,6.29-1.01,1.05-.16,2.11-.32,3.16-.48,1.05-.16,2.11-.32,3.16-.47,1.08-.16,2.16-.32,3.23-.47,1.72-.24,3.44-.48,5.16-.7,2.05-.28,4.09-.54,6.13-.79,1.01-.13,2.01-.25,3.01-.37.33-.04.66-.08.99-.12Z"/>
              <path class="cls-6" d="M260,91.46v16.8c-22.15-2.31-42.38-3.38-56.02-3.16-13.65-.22-33.88.85-56.02,3.16v-16.8c1.27-.13,2.53-.25,3.78-.38,1.25-.12,2.5-.24,3.73-.36.62-.06,1.24-.11,1.85-.17,2.41-.22,4.78-.43,7.12-.61,3.03-.24,6-.46,8.88-.65.57-.04,1.13-.08,1.69-.11,4.13-.26,8.08-.47,11.82-.62.82-.03,1.62-.06,2.42-.09,5.47-.18,10.43-.24,14.74-.17,4.3-.07,9.26-.01,14.74.17.79.03,1.6.06,2.42.09,3.27.14,6.71.31,10.29.52,1.55.1,3.13.2,4.73.31,1.77.12,3.58.26,5.42.4.59.04,1.18.09,1.78.14l.39.03c2.21.18,4.47.37,6.75.58,3.11.28,6.28.59,9.49.92Z"/>
              <path class="cls-3" d="M384.14,136.7h-.01c-22.88-12.21-74.41-22.61-114.13-27.32v-16.8c.25.03.5.06.75.09,1.08.13,2.17.26,3.26.4.63.07,1.27.15,1.9.24,1.35.17,2.7.35,4.06.53,19.77,2.66,40.62,6.37,58.9,10.93.13.03.27.07.4.1,16.84,4.34,31.1,9.5,40.01,15.44h.01c1.71,5.48,3.33,10.94,4.85,16.39Z"/>
            </g>
            <path class="cls-2" d="M384.14,136.7c-1.52-5.45-3.14-10.91-4.85-16.39h-.01c1.71,5.48,3.33,10.94,4.85,16.39.84,3.01,1.65,6.01,2.43,9.01-.77-3-1.58-6-2.42-9.01ZM367.42,403.17c1.28-2.45,2.52-4.92,3.72-7.4-1.21,2.48-2.45,4.95-3.72,7.4ZM376.85,383.22c1.08-2.53,2.13-5.08,3.13-7.65-1.01,2.56-2.05,5.12-3.13,7.65ZM388.93,155.21c.69,2.89,1.35,5.77,1.99,8.65-.63-2.88-1.29-5.76-1.99-8.65ZM390.92,163.86c.63,2.88,1.24,5.75,1.82,8.62-.57-2.87-1.18-5.74-1.82-8.62ZM393.59,176.78c.82,4.3,1.58,8.58,2.28,12.85-.69-4.27-1.45-8.55-2.28-12.85ZM395.87,189.63c.46,2.84.9,5.68,1.31,8.51-.4-2.83-.84-5.67-1.31-8.51ZM399.66,292.97c.35-3.4.65-6.82.89-10.26-.25,3.44-.55,6.86-.89,10.26Z"/>
          </g>
        </g>
        <g>
          <g>
            <path class="cls-24" d="M252.71,293.48l-3.55,13.24h16.25c1.46,0,2.86-.62,3.85-1.7l6.5-7.15,1.64,7.24c.21.94,1.05,1.6,2.01,1.6h10.99l-9.85,5.82c-.77.45-1.16,1.36-.96,2.23l2.69,11.84-11.6-5.87c-1.07-.54-2.33-.51-3.37.09l-25.89,14.82h32.63c9.54,0,17.89-6.41,20.36-15.62h0c3.59-13.39-6.5-26.53-20.36-26.53h-21.34Z"/>
            <g>
              <path class="cls-9" d="M277.35,303.83c-.07.08-.13.17-.19.26l.23,1.04c.21.94,1.05,1.6,2.01,1.6h7.03s0-.03,0-.05c-.15-2.18-1.49-4.42-3.6-4.99-2-.54-4.16.55-5.48,2.14Z"/>
              <path class="cls-13" d="M288.14,330.23c-1.57-.83-2.94-2.05-3.92-3.53-1.46-2.21-2.05-4.98-1.61-7.59.37-2.16,1.39-4.13,2.29-6.13.55-1.22,1.06-2.5,1.33-3.81l-5.69,3.36c-.77.45-1.16,1.36-.96,2.23l2.69,11.84-11.6-5.87c-1.07-.54-2.33-.51-3.37.09l-25.89,14.82h32.63c5.35,0,10.32-2.01,14.09-5.4Z"/>
            </g>
            <path class="cls-12" d="M254.16,288.07h35.1c8.09,0,15.17-5.43,17.26-13.24h0s-35.1,0-35.1,0c-8.09,0-15.17,5.43-17.26,13.24Z"/>
            <path class="cls-15" d="M306.49,274.92c-3.38.28-6.61,2.21-9.41,4.28-3.45,2.55-6.88,5.5-11.1,6.29-4.92.92-9.84-1.28-14.82-1.85-5.88-.67-11.88,1.02-16.93,4.15-.03.09-.06.19-.08.28h35.1c8.06,0,15.11-5.39,17.23-13.15Z"/>
            <path class="cls-21" d="M291.99,274.82h-20.57c-7.17,0-13.54,4.27-16.36,10.68,1.62-2.43,3.64-4.52,6.33-5.96,3.34-1.79,7.28-2.43,11.01-1.79,2.47.43,4.82,1.39,7.25,2.05,2.42.65,5.05.99,7.42.15,2.32-.82,4.18-2.8,4.93-5.13Z"/>
            <path class="cls-18" d="M274.05,335.64c4.75,0,9.2-1.59,12.77-4.31-.05-.02-.1-.04-.15-.07-3.74-1.66-7.3-3.89-11.33-4.6-5.88-1.05-11.8,1.28-17.22,3.8-4.68,2.18-9.17,4.08-14.21,5.18h30.13Z"/>
            <path class="cls-17" d="M274.05,293.48h-21.34l-2.65,9.89c.85.31,1.71.53,2.35.72,3.21.99,6.66,1.22,9.98.65,2.93-.51,5.71-1.62,8.5-2.61.48-.17.96-.34,1.45-.5l3.41-3.75.6,2.66c1.05-.2,2.12-.33,3.19-.35,2.97-.05,6.07.85,8.13,2.98,1.05,1.09,1.75,2.29,2.18,3.55h.54l-.46.27c1.13,3.77-.19,8.03-2.4,11.37-1.53,2.3-3.08,5.02-2.29,7.67.5,1.68,1.93,2.95,3.6,3.54,2.61-2.57,4.57-5.83,5.56-9.56h0c3.59-13.39-6.5-26.53-20.36-26.53Z"/>
            <path class="cls-19" d="M252.71,293.48l-2.05,7.67c3.6.76,7.32.93,10.97.49,2.9-.35,5.82-1.12,8.21-2.79,1.33-.93,3.95-3.34,3.87-5.37h-20.99Z"/>
          </g>
          <g>
            <path class="cls-20" d="M132.78,245.66c129.69-94.66,157.79-69.21,163.39-59.03.59.9,1.02,1.96,1.28,3.16,4.57,20.48-35.8,81.56-35.79,81.56,51.86-15.51,93.97-105.85,54.09-123.12-59.7-25.85-133.47,29.6-182.98,97.43Z"/>
            <g class="cls-25">
              <rect class="cls-20" x="132.78" y="122.39" width="222.86" height="148.97"/>
            </g>
          </g>
          <g>
            <path class="cls-20" d="M185.29,403.73s-125.49,30.76-79.75-115.05c-17.47,32.31-28.09,64.23-28.09,88.98,0,121.38,193.25,83,205.88-39.23.76-7.34-44.32,55.1-98.04,65.29Z"/>
            <g class="cls-14">
              <rect class="cls-20" x="59.8" y="288.68" width="224.29" height="210.36"/>
            </g>
          </g>
          <g>
            <path class="cls-10" d="M105.54,288.68c-45.74,145.81,79.75,115.05,79.75,115.05-4.75.9-9.57,1.39-14.42,1.39-69.54,0,60.22-221.92,117.66-221.92,3.73,0,6.2,1.25,7.64,3.44-5.6-10.18-33.7-35.63-163.39,59.03-10.23,14.01-19.42,28.55-27.24,43.01Z"/>
            <g class="cls-23">
              <rect class="cls-10" x="59.8" y="151" width="236.37" height="283.48"/>
            </g>
          </g>
        </g>
      </g>
      <path class="cls-22" d="M207.65,96.28c3.26,0,6.9.07,10.78.19l2.38.09c3.45.15,6.87.32,10.12.51l.89.06c1.25.08,2.52.16,3.81.25,1.54.1,3.12.22,4.72.35l.64.05h.03s.03,0,.03,0c.51.03,1.01.08,1.53.12h.13s.03.01.03.01h.03s.35.03.35.03c2.68.22,4.73.39,6.68.57,2.89.26,5.96.56,9.36.91,3.53.37,6.77.74,9.89,1.11l.38.05.37.04.35.04c.94.11,1.9.23,2.85.35h.07s.07.02.07.02c.55.06,1.1.13,1.65.21h.07s.07.02.07.02c1.17.15,2.33.3,3.51.46l.51.07c21.61,2.85,41.65,6.57,57.96,10.75l.09.02h.05s.03.02.03.02c.09.02.19.05.28.07,15.43,3.98,27.5,8.41,35.19,12.89,1.39,4.53,2.7,9,3.9,13.32.88,3.17,1.66,6.06,2.38,8.86.79,3.06,1.58,6.22,2.34,9.38.66,2.71,1.31,5.56,1.96,8.5.67,3.02,1.25,5.78,1.79,8.48.24,1.2.48,2.42.72,3.62l.12.6c.81,4.22,1.57,8.46,2.24,12.64.48,2.88.91,5.68,1.29,8.36.2,1.39.39,2.78.58,4.17.31,2.26.59,4.53.85,6.73.27,2.35.5,4.44.7,6.42.35,3.38.67,6.94.95,10.56.25,3.4.45,6.52.61,9.54v.12s0,.01,0,.01c0,.1,0,.2.02.29.29,5.69.46,11.42.5,17.03.06,9.34-.24,18.75-.9,27.95l-.02.3h0c-.22,3.16-.51,6.42-.85,9.74-1.52,14.94-4.06,29.71-7.55,43.89l-.2.81-.12.51c-.54,2.18-1.13,4.4-1.74,6.58l-.16.55-.17.61v.05s-.02,0-.02,0c-.29,1.03-.58,2.05-.87,3.07-.67,2.28-1.28,4.3-1.86,6.12l-.34,1.07c-.22.67-.43,1.34-.65,2.01v.03s-.02.03-.02.03c-.37,1.15-.75,2.27-1.12,3.35l-.02.02-.6,1.74c-.58,1.67-1.18,3.36-1.79,4.98-.61,1.62-1.26,3.34-1.95,5.08-.91,2.33-1.9,4.76-3.03,7.42-.69,1.62-1.41,3.27-2.15,4.9-1.05,2.33-2.2,4.79-3.41,7.3-1.18,2.44-2.4,4.86-3.61,7.19-2.48,4.75-5.13,9.49-7.87,14.07-1.4,2.34-2.83,4.65-4.26,6.87-32.22,50.39-80.73,90.05-144.21,117.91-42-18.43-77.75-42.27-106.34-70.89-.85-.84-1.76-1.76-2.93-2.96-1.88-1.94-3.83-4.01-5.77-6.11-4.7-5.14-9.22-10.45-13.42-15.79-2.35-2.99-4.64-6.02-6.8-9-2.21-3.06-4.36-6.15-6.39-9.2-1.36-2.05-2.71-4.15-4.04-6.27-.47-.75-.93-1.49-1.4-2.27-1.02-1.66-1.92-3.16-2.76-4.61-.99-1.69-1.86-3.22-2.67-4.66-.76-1.36-1.58-2.86-2.57-4.7-.91-1.72-1.72-3.29-2.49-4.79-.41-.8-.81-1.59-1.19-2.36-1.16-2.35-2.33-4.8-3.47-7.25-.71-1.55-1.47-3.21-2.19-4.88v-.03s-.02-.03-.02-.03c-.71-1.61-1.41-3.26-2.1-4.93-.66-1.59-1.34-3.26-2-4.96-.58-1.47-1.17-3.02-1.92-5.01-2.5-6.74-4.76-13.63-6.73-20.46-.54-1.89-1.02-3.6-1.46-5.24-.23-.86-.46-1.73-.68-2.6-.45-1.75-.89-3.53-1.32-5.27-9.4-39.22-11.3-81.92-5.67-126.92.47-3.76,1-7.59,1.59-11.37l.02-.13.02-.13c.03-.27.07-.54.12-.81v-.07s.02-.07.02-.07c.38-2.43.77-4.85,1.19-7.26.29-1.76.61-3.53.97-5.45.7-3.8,1.43-7.54,2.19-11.13v-.04s.02-.04.02-.04c.1-.5.21-1.01.32-1.51v-.04s.02-.04.02-.04c.5-2.43,1.05-4.86,1.53-6.92v-.06s.03-.06.03-.06c.11-.52.23-1.03.36-1.54l.02-.07.02-.07c.52-2.25,1-4.25,1.45-6.09.51-2.06,1.03-4.12,1.56-6.19.55-2.12,1.11-4.23,1.67-6.28h0s.21-.77.21-.77c1.4-5.09,2.9-10.29,4.5-15.48,1.06-.62,2.2-1.24,3.42-1.84h.02s.02-.02.02-.02c.4-.2.81-.4,1.22-.6l.4-.19.32-.15c.33-.15.66-.31,1-.46h.03s.03-.03.03-.03c.38-.17.76-.34,1.15-.51l.04-.02.04-.02.16-.07.08-.04.1-.04.16-.07c.45-.2.92-.4,1.39-.59,4.91-2.04,10.69-4.03,17.21-5.92.52-.15,1.04-.3,1.57-.46l.89-.26c2.77-.78,5.85-1.59,9.43-2.47.46-.11.92-.23,1.39-.34.41-.1.82-.2,1.22-.3.96-.23,1.94-.46,2.97-.69.45-.1.92-.21,1.38-.31h.05s0-.01,0-.01c3.8-.86,7.74-1.69,11.71-2.46h.03s.03-.01.03-.01c.8-.16,1.61-.32,2.45-.48.75-.14,1.49-.29,2.27-.43,1.83-.34,3.67-.67,5.47-.99h.08s1.86-.33,1.86-.33c1.01-.18,2.02-.35,3.09-.52,2.25-.38,4.27-.7,6.17-.99l1.57-.24,1.59-.24c1.03-.16,2.06-.31,3.13-.46h.06c1.04-.16,2.08-.32,3.11-.46,1.7-.24,3.41-.47,5.14-.7,1.82-.25,3.79-.5,6.07-.78.99-.13,1.96-.24,2.95-.36l.97-.12c3.04-.36,6.28-.72,9.87-1.11.56-.06,1.13-.11,1.68-.17.69-.07,1.39-.14,2.08-.21,1.24-.12,2.49-.24,3.7-.36.28-.03.55-.05.83-.08.34-.03.68-.06,1.01-.09,2.11-.19,4.58-.41,6.99-.6,3.22-.26,6.09-.47,8.81-.64h.1c.49-.04.97-.08,1.46-.1h.04s.04,0,.04,0c4.18-.26,8.1-.47,11.61-.61l2.39-.09c3.91-.13,7.55-.19,10.82-.19,1.22,0,2.4,0,3.53.03h.13s.13,0,.13,0c1.13-.02,2.3-.03,3.52-.03M207.65,88.28c-1.27,0-2.48,0-3.65.03-1.17-.02-2.39-.03-3.66-.03-3.39,0-7.1.07-11.08.2-.8.03-1.6.06-2.42.09-3.74.15-7.69.36-11.82.62-.56.03-1.12.07-1.69.11-2.88.19-5.85.41-8.88.65-2.34.18-4.71.39-7.12.61-.61.06-1.23.11-1.85.17-1.23.12-2.48.24-3.73.36-1.25.13-2.51.25-3.78.38-3.29.35-6.63.72-10,1.12-.33.04-.66.08-.99.12-1,.12-2,.24-3.01.37-2.04.25-4.08.51-6.13.79-1.72.23-3.44.46-5.16.7-1.07.15-2.15.31-3.23.47-1.05.15-2.11.31-3.16.47-1.05.16-2.11.32-3.16.48-2.1.32-4.2.66-6.29,1.01-1.05.17-2.09.35-3.13.53-.65.11-1.29.22-1.93.33-1.86.33-3.71.67-5.56,1.01-.78.14-1.56.29-2.34.44-.85.16-1.69.32-2.53.49-4.06.79-8.06,1.63-11.95,2.51-.49.11-.98.22-1.46.33-1.03.23-2.05.47-3.06.71-.89.22-1.79.43-2.67.65-3.32.82-6.56,1.66-9.68,2.54-.86.25-1.71.49-2.55.74-6.6,1.92-12.66,3.99-17.99,6.2-.53.22-1.05.44-1.55.66-.18.07-.35.15-.53.23-.44.19-.86.38-1.28.57-.52.23-1.03.47-1.53.7-.61.3-1.21.59-1.8.89-2.04,1.02-3.93,2.08-5.64,3.17-.33.2-.65.41-.96.62-1.94,6.21-3.76,12.41-5.45,18.58-.01.02-.02.04-.02.06-.65,2.37-1.28,4.74-1.89,7.1-.54,2.09-1.06,4.17-1.58,6.25-.51,2.08-1,4.15-1.48,6.22-.15.6-.29,1.2-.42,1.81-.54,2.36-1.07,4.72-1.56,7.08-.12.55-.24,1.1-.35,1.65-.8,3.79-1.54,7.57-2.23,11.34-.35,1.86-.68,3.71-.99,5.57-.42,2.45-.82,4.9-1.2,7.34-.07.4-.13.81-.18,1.22-.6,3.88-1.14,7.75-1.62,11.61-5.69,45.45-3.9,89.15,5.83,129.77.44,1.81.89,3.61,1.35,5.4.23.9.47,1.8.71,2.7.48,1.79.98,3.58,1.49,5.36,2.05,7.12,4.36,14.13,6.92,21.04.65,1.73,1.3,3.44,1.97,5.15.67,1.71,1.36,3.42,2.07,5.12.7,1.7,1.42,3.39,2.16,5.07.73,1.69,1.49,3.36,2.26,5.04,1.16,2.5,2.35,4.99,3.57,7.46.41.82.82,1.64,1.24,2.46.84,1.64,1.69,3.27,2.55,4.9.87,1.62,1.75,3.24,2.65,4.85s1.82,3.21,2.75,4.8c.93,1.6,1.88,3.18,2.85,4.76.48.79.96,1.57,1.46,2.36,1.35,2.16,2.73,4.3,4.14,6.42,2.12,3.19,4.31,6.34,6.57,9.46,2.26,3.12,4.59,6.2,6.99,9.25,4.36,5.54,8.96,10.95,13.8,16.24,1.95,2.11,3.92,4.2,5.92,6.27,1.01,1.04,2.02,2.07,3.05,3.09,29.3,29.34,66.39,54.32,111.67,73.8.1.04.2.09.3.13.27-.12.54-.23.81-.35,68.24-29.46,117.83-71.44,150.14-121.97,1.5-2.34,2.96-4.7,4.38-7.07,2.85-4.76,5.55-9.59,8.1-14.48,1.28-2.45,2.52-4.92,3.72-7.4,1.2-2.49,2.37-4.99,3.5-7.5.75-1.67,1.49-3.36,2.21-5.05,1.08-2.53,2.13-5.08,3.13-7.65.68-1.72,1.33-3.44,1.98-5.17.64-1.72,1.26-3.45,1.86-5.19h.01c.61-1.74,1.2-3.49,1.77-5.24.35-1.05.68-2.1,1.02-3.15.67-2.1,1.31-4.22,1.93-6.34.31-1.06.61-2.13.91-3.2.11-.39.22-.77.33-1.16.63-2.26,1.23-4.53,1.8-6.82.11-.45.22-.9.33-1.35,3.6-14.61,6.18-29.62,7.74-44.98.35-3.4.65-6.82.89-10.26v-.02c.67-9.41.98-18.94.92-28.57-.04-5.78-.21-11.6-.51-17.46-.01-.12-.01-.25-.02-.37-.17-3.23-.38-6.46-.62-9.71-.28-3.58-.6-7.18-.97-10.79-.22-2.17-.46-4.35-.71-6.52-.27-2.29-.56-4.58-.87-6.88-.19-1.41-.39-2.83-.59-4.25-.4-2.83-.84-5.67-1.31-8.51-.69-4.27-1.45-8.55-2.28-12.85-.28-1.43-.56-2.87-.85-4.3-.57-2.87-1.18-5.74-1.82-8.62-.63-2.88-1.29-5.76-1.99-8.65-.76-3.16-1.55-6.33-2.37-9.5-.77-3-1.58-6-2.42-9.01-1.52-5.45-3.14-10.91-4.85-16.39h-.01c-8.91-5.94-23.17-11.1-40.01-15.44-.13-.03-.27-.07-.4-.1-17.87-4.58-38.59-8.25-58.9-10.93-1.36-.18-2.71-.36-4.06-.53-.63-.09-1.27-.17-1.9-.24-1.09-.14-2.18-.27-3.26-.4-.25-.03-.5-.06-.75-.09-3.37-.4-6.7-.77-10-1.12-3.21-.33-6.38-.64-9.49-.92-2.28-.21-4.54-.4-6.75-.58l-.39-.03c-.6-.05-1.19-.1-1.78-.14-1.84-.14-3.65-.28-5.42-.4-1.6-.11-3.18-.21-4.73-.31-3.58-.21-7.02-.38-10.29-.52-.82-.03-1.63-.06-2.42-.09-3.99-.13-7.7-.2-11.09-.2h0Z"/>
    </g>
    <g>
      <polygon class="cls-16" points="201.77 0 209.65 24.24 235.14 24.24 214.52 39.22 222.4 63.46 201.77 48.48 181.16 63.46 189.03 39.22 168.41 24.24 193.9 24.24 201.77 0"/>
      <polygon class="cls-16" points="135.19 23.09 141.02 41.02 159.87 41.02 144.62 52.11 150.44 70.04 135.19 58.95 119.94 70.04 125.76 52.11 110.51 41.02 129.36 41.02 135.19 23.09"/>
      <polygon class="cls-16" points="89.2 48.95 92.8 60.04 104.45 60.04 95.02 66.89 98.62 77.97 89.2 71.12 79.77 77.97 83.37 66.89 73.94 60.04 85.59 60.04 89.2 48.95"/>
      <polygon class="cls-16" points="272.79 23.09 266.96 41.02 248.11 41.02 263.36 52.11 257.54 70.04 272.79 58.95 288.04 70.04 282.22 52.11 297.47 41.02 278.62 41.02 272.79 23.09"/>
      <polygon class="cls-16" points="318.79 48.95 315.19 60.04 303.53 60.04 312.96 66.89 309.36 77.97 318.79 71.12 328.21 77.97 324.61 66.89 334.04 60.04 322.39 60.04 318.79 48.95"/>
    </g>
  </g>
</svg>