<svg width="600" height="400" viewBox="0 0 600 400" xmlns="http://www.w3.org/2000/svg">
  <!-- Campo di fondo -->
  <rect width="600" height="400" fill="#2ECC71"/>
  
  <!-- Linee del campo -->
  <!-- Bordo esterno -->
  <rect x="20" y="20" width="560" height="360" fill="none" stroke="white" stroke-width="3"/>
  
  <!-- Linea di metà campo -->
  <line x1="300" y1="20" x2="300" y2="380" stroke="white" stroke-width="3"/>
  
  <!-- Cerchio di centrocampo -->
  <circle cx="300" cy="200" r="60" fill="none" stroke="white" stroke-width="3"/>
  <circle cx="300" cy="200" r="3" fill="white"/>
  
  <!-- Area di rigore sinistra -->
  <rect x="20" y="120" width="80" height="160" fill="none" stroke="white" stroke-width="3"/>
  <rect x="20" y="160" width="40" height="80" fill="none" stroke="white" stroke-width="3"/>
  
  <!-- Area di rigore destra -->
  <rect x="500" y="120" width="80" height="160" fill="none" stroke="white" stroke-width="3"/>
  <rect x="540" y="160" width="40" height="80" fill="none" stroke="white" stroke-width="3"/>
  
  <!-- Semicerchi area di rigore -->
  <path d="M 100 200 A 40 40 0 0 1 100 200" stroke="white" stroke-width="3" fill="none"/>
  <path d="M 500 200 A 40 40 0 0 0 500 200" stroke="white" stroke-width="3" fill="none"/>
  
  <!-- Corner -->
  <path d="M 20 20 A 10 10 0 0 1 30 20" stroke="white" stroke-width="2" fill="none"/>
  <path d="M 570 20 A 10 10 0 0 1 580 30" stroke="white" stroke-width="2" fill="none"/>
  <path d="M 20 380 A 10 10 0 0 1 20 370" stroke="white" stroke-width="2" fill="none"/>
  <path d="M 580 380 A 10 10 0 0 1 570 380" stroke="white" stroke-width="2" fill="none"/>
  
  <!-- Punti di rigore -->
  <circle cx="80" cy="200" r="2" fill="white"/>
  <circle cx="520" cy="200" r="2" fill="white"/>
</svg> 